<svg width="3245" height="748" viewBox="0 0 3245 748" fill="none" xmlns="http://www.w3.org/2000/svg">
<path d="M596 32V208H408V740H186V208H7.07805e-07V32H596ZM1024.21 747C967.544 747 916.544 735.333 871.211 712C825.878 688.667 790.211 655.333 764.211 612C738.878 568 726.211 516.667 726.211 458C726.211 399.333 738.878 348.333 764.211 305C790.211 261 825.878 227.333 871.211 204C916.544 180.667 967.544 169 1024.21 169C1080.88 169 1131.88 180.667 1177.21 204C1222.54 227.333 1257.88 261 1283.21 305C1309.21 348.333 1322.21 399.333 1322.21 458C1322.21 516.667 1309.21 568 1283.21 612C1257.88 655.333 1222.54 688.667 1177.21 712C1131.88 735.333 1080.88 747 1024.21 747ZM1024.21 555C1044.88 555 1062.21 547 1076.21 531C1090.21 514.333 1097.21 490 1097.21 458C1097.21 426 1090.21 402 1076.21 386C1062.21 369.333 1044.88 361 1024.21 361C1003.54 361 986.211 369.333 972.211 386C958.211 402 951.211 426 951.211 458C951.211 490 957.878 514.333 971.211 531C985.211 547 1002.88 555 1024.21 555ZM1461.95 458C1461.95 398.667 1471.95 347.333 1491.95 304C1512.62 260 1540.62 226.667 1575.95 204C1611.29 180.667 1650.95 169 1694.95 169C1731.62 169 1762.95 176.667 1788.95 192C1815.62 206.667 1835.95 227 1849.95 253V-9.53674e-06H2071.95V740H1849.95V663C1835.95 689 1815.62 709.667 1788.95 725C1762.95 739.667 1731.62 747 1694.95 747C1650.95 747 1611.29 735.667 1575.95 713C1540.62 689.667 1512.62 656.333 1491.95 613C1471.95 569 1461.95 517.333 1461.95 458ZM1850.95 458C1850.95 428 1843.29 404.667 1827.95 388C1812.62 371.333 1792.95 363 1768.95 363C1744.95 363 1725.29 371.333 1709.95 388C1694.62 404.667 1686.95 428 1686.95 458C1686.95 488 1694.62 511.333 1709.95 528C1725.29 544.667 1744.95 553 1768.95 553C1792.95 553 1812.62 544.667 1827.95 528C1843.29 511.333 1850.95 488 1850.95 458ZM2539.64 747C2482.97 747 2431.97 735.333 2386.64 712C2341.31 688.667 2305.64 655.333 2279.64 612C2254.31 568 2241.64 516.667 2241.64 458C2241.64 399.333 2254.31 348.333 2279.64 305C2305.64 261 2341.31 227.333 2386.64 204C2431.97 180.667 2482.97 169 2539.64 169C2596.31 169 2647.31 180.667 2692.64 204C2737.97 227.333 2773.31 261 2798.64 305C2824.64 348.333 2837.64 399.333 2837.64 458C2837.64 516.667 2824.64 568 2798.64 612C2773.31 655.333 2737.97 688.667 2692.64 712C2647.31 735.333 2596.31 747 2539.64 747ZM2539.64 555C2560.31 555 2577.64 547 2591.64 531C2605.64 514.333 2612.64 490 2612.64 458C2612.64 426 2605.64 402 2591.64 386C2577.64 369.333 2560.31 361 2539.64 361C2518.97 361 2501.64 369.333 2487.64 386C2473.64 402 2466.64 426 2466.64 458C2466.64 490 2473.31 514.333 2486.64 531C2500.64 547 2518.31 555 2539.64 555ZM3117.38 748C3078.72 748 3047.72 737.667 3024.38 717C3001.05 696.333 2989.38 670.333 2989.38 639C2989.38 607 3001.05 580.667 3024.38 560C3047.72 538.667 3078.72 528 3117.38 528C3155.38 528 3186.05 538.667 3209.38 560C3232.72 580.667 3244.38 607 3244.38 639C3244.38 670.333 3232.72 696.333 3209.38 717C3186.05 737.667 3155.38 748 3117.38 748ZM3117.38 352C3078.72 352 3047.72 341.667 3024.38 321C3001.05 300.333 2989.38 274.333 2989.38 243C2989.38 211 3001.05 184.667 3024.38 164C3047.72 142.667 3078.72 132 3117.38 132C3155.38 132 3186.05 142.667 3209.38 164C3232.72 184.667 3244.38 211 3244.38 243C3244.38 274.333 3232.72 300.333 3209.38 321C3186.05 341.667 3155.38 352 3117.38 352Z" fill="#42A0A4"/>
</svg>
